<svg id="Слой_1" data-name="Слой 1" xmlns="http://www.w3.org/2000/svg" viewBox="0 0 4302.78 2220.56"><defs><style>.cls-1{fill:#212121;fill-rule:evenodd;}</style></defs><title>AQ_big_logo_svg</title><path class="cls-1" d="M1350,545.59c0-292.59,237.57-530.15,530.6-530.15,84.85,0,161.9,23.85,233,61.92l60.55,36.7,41.25-26.15c76.13-44,159.61-72.46,252.72-72.46,293,0,530.57,237.57,530.57,530.15S2761.08,1075.74,2468,1075.74c-84.87,0-161.9-23.85-233-61.92l-60.55-36.68-41.27,26.6c-76.13,43.55-159.59,72.46-252.7,72.46C1587.52,1076.21,1350,838.64,1350,545.59ZM2025,921.18l46.78-23.85-321-322.39A42,42,0,0,1,1741.6,530l9.18-13.77,13.75-13.75,203.17-211c16.5-16.06,42.63-16.06,58.69,0L2054.84,320c16.5,16.06,16.06,42.66,0,58.69L1908.54,530.92l-14.69,14.67,37.62,39c77.95,82.09,150.89,161.43,228.36,227.94,102.29,87.13,200.41,140.78,308.21,140.78,225.18,0,407.69-183,407.69-407.7,0-225.16-182.5-407.7-407.69-407.7-50,0-97.68,11.47-144.48,32.11l-46.31,23.85,72,66.51c80.26,78.42,159.57,166.91,234.76,242.13l15.63,15.58a41.62,41.62,0,0,1,2.28,52.76l-1.38,1.83-219.68,227a41.81,41.81,0,0,1-58.72,0l-28.44-28.44a41.82,41.82,0,0,1,0-58.69l161.45-166.46-38.06-39.46c-78-82.09-150.44-161-228.36-227.91-102.29-87.13-200.44-140.34-308.21-140.34-225.16,0-407.69,182.52-407.69,407.24,0,225.18,182.52,407.7,407.69,407.7C1930.55,953.29,1978.25,941.83,2025,921.18Z" transform="translate(-22.94 -15.44)"/><path class="cls-1" d="M1007.84,2089.26L687.73,1369.71c-13.3-29.8,8.26-63.28,40.82-63.28h37.6a45.09,45.09,0,0,1,41.27,27.05l257.29,582.44,256.8-582.44a45.15,45.15,0,0,1,41.29-27.05h35.31c32.56,0,54.57,33.48,41.27,63.28l-320.57,719.55a44.52,44.52,0,0,1-40.82,26.6h-28.89A44.72,44.72,0,0,1,1007.84,2089.26Z" transform="translate(-22.94 -15.44)"/><path class="cls-1" d="M3224.25,2089.26l-320.53-719.55c-13.3-29.8,8.69-63.28,41.25-63.28h37.62a45.16,45.16,0,0,1,41.29,27.05l256.8,582.44L3538,1333.48a44,44,0,0,1,40.8-27.05h35.78c32.56,0,54.1,33.48,41.25,63.28l-320.53,719.55a44.77,44.77,0,0,1-41.29,26.6h-28.44A44.76,44.76,0,0,1,3224.25,2089.26Z" transform="translate(-22.94 -15.44)"/><path class="cls-1" d="M2695,2209.42l-187.56-421.93c-13.3-29.36,8.29-63.28,40.84-63.28H2584a45.13,45.13,0,0,1,41.29,27l71.07,161,6.45-6.43,16.48-20.18a297.16,297.16,0,0,0,38.07-71.54c12.85-34.4,19.26-71.55,19.26-110.53v-2.28q0-59.86-20.65-112.82a287.36,287.36,0,0,0-57.33-93.56,270.41,270.41,0,0,0-86.66-63.28c-33.46-15.14-70.18-22.93-111.92-22.93-42.19,0-79.32,7.79-112.32,22.93-33.5,15.12-62.38,35.76-86.7,62.37a284.56,284.56,0,0,0-56.39,92.64q-19.95,52.27-20.65,112.82v1.83c0.45,40.35,7.35,77.95,20.65,113.26a294.51,294.51,0,0,0,57.78,93.11,268,268,0,0,0,87.15,63.28,249.79,249.79,0,0,0,75.19,21.09c17.42,2.76,35.78,17.42,42.64,34.87l21.09,53.65c7.35,19.26-2.28,34.84-21.54,34.84H2495.1c-5.06,0-10.08-.45-15.14-0.45h-3.22c-50.88-2.75-98.57-13.3-142.15-33-49.09-22.46-91.72-52.74-127.06-91.72-35.29-38.51-61.89-82.54-80.7-132.07-18.79-49.06-28-101.35-28-155.47v-2.28a445,445,0,0,1,28-155.92c19.26-49.08,45.86-93.11,81.2-131.62a380.45,380.45,0,0,1,127.46-91.72c50-22.49,105.52-34,165.57-34s115.55,11.47,165.57,34c49,22,91.72,52.73,127,91.72a417.59,417.59,0,0,1,80.71,131.62,444.52,444.52,0,0,1,28,155.92v2.28a436.57,436.57,0,0,1-28,154.1c-18.32,49.07-44.47,93.09-79.77,132.07l-1.38,1.37L2769.81,2014l-1.83,1.84c-6.45,5.51-12.85,10.54-19.26,15.58l62.34,141.72c13.3,29.36-8.69,62.82-40.8,62.82h-34A44.75,44.75,0,0,1,2695,2209.42Z" transform="translate(-22.94 -15.44)"/><path class="cls-1" d="M1327,2047.07l338.92-719.55a44.69,44.69,0,0,1,40.35-26.15h33c17.42,0,33,10.1,40.8,26.15L2119,2047.07c13.75,29.8-7.8,64.2-40.83,64.2h-37.6a44.9,44.9,0,0,1-40.82-26.13l-277.92-592.06-134.83,288H1693V1782c17.89,2.75,37.15,17,45.86,33.47l27.05,53.21c8.26,16.51,3.67,30.72-10.55,33.48v0.47h-2.73a10.4,10.4,0,0,1-3.67.45l-218.75-.45L1444,2085.14a44.9,44.9,0,0,1-40.82,26.13h-35.78C1334.82,2111.27,1312.8,2076.87,1327,2047.07Z" transform="translate(-22.94 -15.44)"/><path class="cls-1" d="M27.34,2047.07l338.91-719.55a44.84,44.84,0,0,1,40.8-26.15h32.56A44.22,44.22,0,0,1,480,1327.52l339.36,719.55c13.75,29.8-7.79,64.2-40.82,64.2h-37.6a44.88,44.88,0,0,1-40.82-26.13L422.2,1493.07l-134.38,288H393.31V1782c17.89,2.75,37.6,17,45.86,33.47l27,53.21c8.71,16.51,3.67,30.72-10.55,33.48v0.47h-2.75a9.12,9.12,0,0,1-3.67.45l-218.75-.45-86.21,182.52a44.38,44.38,0,0,1-40.82,26.13H67.7C35.14,2111.27,13.12,2076.87,27.34,2047.07Z" transform="translate(-22.94 -15.44)"/><path class="cls-1" d="M3529.24,2047.07l339.39-719.55a44.64,44.64,0,0,1,40.35-26.15h32.56a44.38,44.38,0,0,1,40.8,26.15l338.94,719.55c14.19,29.8-7.35,64.2-40.4,64.2h-37.57a45.53,45.53,0,0,1-41.29-26.13l-277.45-592.06-134.85,288h106V1782c17.42,2.75,37.13,17,45.86,33.47l27,53.21c8.24,16.51,3.67,30.72-11,33.48l0.45,0.47h-3.18a7,7,0,0,1-3.22.45l-219.23-.45-85.76,182.52a44.82,44.82,0,0,1-40.8,26.13H3570C3537,2111.27,3515.5,2076.87,3529.24,2047.07Z" transform="translate(-22.94 -15.44)"/></svg>